# xmcd
# Copyright (C) 1995-1998 Ti Kan
#
# Track frame offsets:
#       150
#       2677
#       12286
#       31325
#       53972
#       68725
#       83454
#       103873
#       123419
#       156533
#       178438
#       185307
#
# Disc length: 2820 seconds
#
# Revision: 0
# Processed by: cddbd v1.5.2PL0 Copyright (c) Steve Scherf et al.
# Submitted via: CD-Import v1.0
#
DISCID=990b020c
DTITLE=Little Bastard - Be(At) Somebody
DYEAR=1900
DGENRE=
TTITLE0=Kaffeerkränzchen
TTITLE1=Need For Rock'n'roll
TTITLE2=Trashbin-Nancy
TTITLE3=Freeze The Time
TTITLE4=Slave Of You
TTITLE5=Ready To Die
TTITLE6=Missing-Song
TTITLE7=The Last Kiss
TTITLE8=A Song As The Sun
TTITLE9=Me And My Guitar
TTITLE10=Pills For Ills
TTITLE11=Be (At) Somebody
EXTD=
EXTT0=
EXTT1=
EXTT2=
EXTT3=
EXTT4=
EXTT5=
EXTT6=
EXTT7=
EXTT8=
EXTT9=
EXTT10=
EXTT11=
PLAYORDER=
